<?xml version="1.0" encoding="utf-8"?>
<!-- Generator: Adobe Illustrator 23.0.1, SVG Export Plug-In . SVG Version: 6.00 Build 0)  -->
<svg version="1.1" id="Layer_1" xmlns="http://www.w3.org/2000/svg" xmlns:xlink="http://www.w3.org/1999/xlink" x="0px" y="0px"
	 viewBox="0 0 1945.4 447" style="enable-background:new 0 0 1945.4 447;" xml:space="preserve">
<path d="M394.4,0.9L0,395.1v51.5h52l342.4-341.9v341.9h73.3V0.2h-73.3V0.9z"/>
<path d="M1725.3,0.2h73.3v446.7h-73.3V0.2z"/>
<path d="M1872.1,0.2h73.3v446.7h-73.3V0.2z"/>
<path d="M1061.3,0.2h73.3v446.7h-73.3V0.2z"/>
<path d="M614.6,0.2h-73.3v446.4h0.7h72.6h31.2L988,104.7V0.9L614.6,374.2V0.2z"/>
<path d="M1431.3,72.5c69-0.1,129.2,47.1,145.4,114.2h75.2C1631.6,65,1516.5-17.2,1394.8,3.1s-204,135.5-183.6,257.2
	s135.5,204,257.2,183.6c94.2-15.7,167.9-89.5,183.6-183.6h-76c-21,79.9-102.9,127.7-182.8,106.7s-127.7-102.9-106.7-182.8
	C1303.8,118.3,1363.3,72.5,1431.3,72.5z"/>
</svg>
