<?xml version="1.0" encoding="utf-8"?>
<!-- Generator: Adobe Illustrator 21.0.2, SVG Export Plug-In . SVG Version: 6.00 Build 0)  -->
<svg version="1.1" id="Layer_1" xmlns="http://www.w3.org/2000/svg" xmlns:xlink="http://www.w3.org/1999/xlink" x="0px" y="0px"
	 viewBox="0 0 110 31" style="enable-background:new 0 0 110 31;" xml:space="preserve">
<style type="text/css">
	.st0{fill:#f0f0f5;}
	.st1{fill:#49B1E5;}
</style>
<g>
	<path class="st0" d="M12.6,6.8c1.2,0.5,2.2,1.4,3,2.6c0.7,1,1.2,2.2,1.4,3.6c0.1,0.8,0.2,1.9,0.1,3.4H4.5C4.6,18,5.2,19.3,6.3,20
		c0.7,0.4,1.5,0.6,2.5,0.6c1,0,1.9-0.3,2.5-0.8c0.3-0.3,0.7-0.7,0.9-1.2h4.6c-0.1,1-0.7,2.1-1.7,3.1c-1.5,1.7-3.7,2.5-6.5,2.5
		c-2.3,0-4.3-0.7-6.1-2.1C0.9,20.7,0,18.4,0,15.2c0-3,0.8-5.3,2.4-6.9C4,6.8,6,6,8.5,6C10,6,11.4,6.2,12.6,6.8z M5.9,10.7
		c-0.6,0.7-1,1.5-1.2,2.7h7.8c-0.1-1.2-0.5-2.1-1.2-2.7C10.5,10,9.6,9.7,8.5,9.7C7.4,9.7,6.5,10,5.9,10.7z"/>
	<path class="st0" d="M27.5,13.2c0.8-0.1,1.4-0.2,1.8-0.4c0.6-0.3,1-0.7,1-1.3c0-0.7-0.2-1.2-0.7-1.5c-0.5-0.3-1.2-0.4-2.2-0.4
		c-1.1,0-1.8,0.3-2.3,0.8c-0.3,0.4-0.5,0.9-0.6,1.6h-4.3c0.1-1.5,0.5-2.7,1.3-3.7C22.5,6.8,24.6,6,27.5,6c1.9,0,3.6,0.4,5.1,1.1
		c1.5,0.7,2.2,2.2,2.2,4.2v7.9c0,0.5,0,1.2,0,2c0,0.6,0.1,1,0.3,1.2s0.4,0.4,0.7,0.5v0.7h-4.9c-0.1-0.3-0.2-0.7-0.3-1
		c-0.1-0.3-0.1-0.7-0.1-1c-0.6,0.7-1.3,1.2-2.2,1.7c-1,0.6-2.1,0.8-3.3,0.8c-1.6,0-2.9-0.4-3.9-1.3c-1-0.9-1.5-2.2-1.5-3.8
		c0-2.1,0.8-3.7,2.5-4.6c0.9-0.5,2.2-0.9,4-1.1L27.5,13.2z M30.3,15.3c-0.3,0.2-0.6,0.3-0.9,0.4s-0.7,0.2-1.2,0.3l-1,0.2
		c-1,0.2-1.7,0.4-2.1,0.6c-0.7,0.4-1.1,1-1.1,1.9c0,0.8,0.2,1.3,0.7,1.7c0.4,0.3,1,0.5,1.6,0.5c1,0,1.9-0.3,2.7-0.9s1.3-1.6,1.3-3.1
		V15.3z"/>
	<path class="st0" d="M42.8,18.2c0.1,0.8,0.3,1.4,0.6,1.7c0.6,0.6,1.6,0.9,3.1,0.9c0.9,0,1.6-0.1,2.1-0.4c0.5-0.3,0.8-0.7,0.8-1.2
		c0-0.5-0.2-0.9-0.6-1.2c-0.4-0.3-2-0.7-4.7-1.4c-2-0.5-3.3-1.1-4.1-1.8c-0.8-0.7-1.2-1.7-1.2-3.1c0-1.6,0.6-3,1.9-4.1
		s3-1.7,5.3-1.7c2.2,0,3.9,0.4,5.3,1.3c1.4,0.9,2.1,2.3,2.3,4.5H49c-0.1-0.6-0.2-1-0.5-1.4c-0.5-0.6-1.3-0.9-2.5-0.9
		c-1,0-1.7,0.2-2.1,0.5c-0.4,0.3-0.6,0.7-0.6,1.1c0,0.5,0.2,0.9,0.7,1.1c0.4,0.2,2,0.7,4.7,1.2c1.8,0.4,3.1,1.1,4,1.9
		c0.9,0.9,1.3,1.9,1.3,3.2c0,1.7-0.6,3.1-1.9,4.2c-1.3,1.1-3.2,1.6-5.9,1.6c-2.7,0-4.7-0.6-6-1.7s-1.9-2.6-1.9-4.4H42.8z"/>
	<path class="st0" d="M69.2,6.8c1.2,0.5,2.2,1.4,3,2.6c0.7,1,1.2,2.2,1.4,3.6c0.1,0.8,0.2,1.9,0.1,3.4H61.2c0.1,1.7,0.7,2.9,1.8,3.6
		c0.7,0.4,1.5,0.6,2.5,0.6c1,0,1.9-0.3,2.5-0.8c0.3-0.3,0.7-0.7,0.9-1.2h4.6c-0.1,1-0.7,2.1-1.7,3.1c-1.5,1.7-3.7,2.5-6.5,2.5
		c-2.3,0-4.3-0.7-6.1-2.1c-1.8-1.4-2.6-3.7-2.6-6.9c0-3,0.8-5.3,2.4-6.9S62.6,6,65.2,6C66.7,6,68,6.2,69.2,6.8z M62.5,10.7
		c-0.6,0.7-1,1.5-1.2,2.7H69c-0.1-1.2-0.5-2.1-1.2-2.7c-0.7-0.6-1.6-0.9-2.7-0.9C64,9.7,63.1,10,62.5,10.7z"/>
	<path class="st0" d="M81.3,23.7h-4.5V0.4h4.5V23.7z"/>
	<path class="st1" d="M89.6,23.7h-4.5V0.4h4.5V23.7z"/>
	<path class="st1" d="M95.3,27l0.6,0c0.4,0,0.9,0,1.3,0c0.4-0.1,0.7-0.2,1-0.4c0.3-0.2,0.5-0.6,0.7-1.1s0.3-0.9,0.3-1l-6.3-18h5
		l3.8,12.7l3.6-12.7h4.8l-5.9,17c-1.1,3.3-2,5.3-2.7,6.1c-0.7,0.8-2,1.2-4,1.2c-0.4,0-0.7,0-1,0c-0.2,0-0.6,0-1.1-0.1V27z"/>
</g>
</svg>
